<?xml version="1.0" encoding="UTF-8"?>
<svg enable-background="new 0 0 421.601 421.601" version="1.1" viewBox="0 0 421.6 421.6" xml:space="preserve" xmlns="http://www.w3.org/2000/svg">

	<rect x="32.663" y="94.785" width="356.73" height="300.78" fill="#76DD91"/>
	<g fill="#62C479">
		<path d="m42.163 149.02c0 7.37-3.77 13.85-9.5 17.61v-17.61h9.5z"/>
		<path d="m84.318 149.01c0 11.65-9.436 21.086-21.086 21.086-11.637 0-21.073-9.436-21.073-21.086h42.159z"/>
		<path d="m126.48 149.01c0 11.65-9.436 21.086-21.073 21.086-11.65 0-21.086-9.436-21.086-21.086h42.159z"/>
		<path d="m168.64 149.01c0 11.65-9.436 21.086-21.073 21.086-11.65 0-21.086-9.436-21.086-21.086h42.159z"/>
		<path d="m210.8 149.01c0 11.65-9.436 21.086-21.073 21.086-11.65 0-21.086-9.436-21.086-21.086h42.159z"/>
		<path d="m252.97 149.01c0 11.65-9.448 21.086-21.086 21.086-11.637 0-21.086-9.436-21.086-21.086h42.172z"/>
		<path d="m295.12 149.01c0 11.65-9.436 21.086-21.086 21.086-11.637 0-21.073-9.436-21.073-21.086h42.159z"/>
		<path d="m337.28 149.01c0 11.65-9.436 21.086-21.086 21.086-11.637 0-21.073-9.436-21.073-21.086h42.159z"/>
		<path d="m379.44 149.01c0 11.65-9.436 21.086-21.086 21.086-11.637 0-21.073-9.436-21.073-21.086h42.159z"/>
		<path d="m389.39 149.02v17.9c-5.98-3.72-9.95-10.34-9.95-17.9h9.95z"/>
	</g>
	<rect x="32.663" y="94.785" width="356.73" height="54.227" fill="#62C479"/>
	<rect x="49.032" y="177.12" width="116.21" height="218.44" fill="#4EAF60"/>
	<rect x="54.032" y="182.12" width="106.21" height="208.44" fill="#62C479"/>
	<rect x="62.032" y="186.12" width="90.211" height="126" fill="#76DD91"/>
	<rect x="68.032" y="192.12" width="78.211" height="114" fill="#2D4151"/>
	<rect x="62.032" y="318.12" width="90.211" height="64.443" fill="#76DD91"/>
	<rect x="67.032" y="323.62" width="80.211" height="53.443" fill="#62C479"/>
	
		
			<rect x="76.032" y="360.27" width="62.211" height="8.022" fill="#76DD91"/>
		
		
			<rect x="76.032" y="333.4" width="62.211" height="8.022" fill="#76DD91"/>
		
		
			<rect x="76.032" y="346.83" width="62.211" height="8.022" fill="#76DD91"/>
		
	
	
		<circle cx="106.86" cy="253.53" r="2.469" fill="#D8D4D5"/>
		
			<polygon points="118.81 262.89 106.9 253.87 95.535 262.67 95.199 262.23 106.89 253.18 119.14 262.45" fill="#C1B9BC"/>
		
		<path d="m124.02 270.43c0 2.201-1.8 4-4 4h-25.763c-2.2 0-4-1.799-4-4v-5.293c0-2.199 1.8-4 4-4h25.763c2.2 0 4 1.801 4 4v5.293z" fill="#C12525"/>
		<g fill="#FAFCFC">
			<path d="m99.083 263.53c0.601 0 1.112 0.213 1.533 0.636s0.631 0.933 0.631 1.529v4.935c0 0.602-0.212 1.112-0.635 1.533s-0.933 0.631-1.529 0.631c-0.601 0-1.111-0.211-1.529-0.635-0.418-0.423-0.628-0.933-0.628-1.529v-4.935c0-0.601 0.212-1.112 0.635-1.533 0.422-0.421 0.93-0.632 1.522-0.632zm0.743 2.137c0-0.217-0.076-0.4-0.227-0.553-0.152-0.151-0.335-0.227-0.552-0.227-0.216 0-0.401 0.075-0.555 0.227s-0.231 0.336-0.231 0.553v4.949c0 0.216 0.077 0.4 0.231 0.551 0.154 0.152 0.339 0.228 0.555 0.228 0.217 0 0.4-0.075 0.552-0.228 0.151-0.15 0.227-0.335 0.227-0.551v-4.949z"/>
			<path d="m104.6 263.64c0.664 0 1.193 0.209 1.587 0.628 0.365 0.398 0.548 0.908 0.548 1.529v1.313c0 0.597-0.208 1.106-0.624 1.529-0.416 0.424-0.92 0.635-1.512 0.635h-0.786v3.406h-1.364v-9.04h2.151zm0.816 2.179c0-0.236-0.071-0.426-0.213-0.57s-0.331-0.217-0.566-0.217h-0.822v2.894h0.822c0.217 0 0.4-0.077 0.552-0.231 0.151-0.153 0.227-0.338 0.227-0.555v-1.321z"/>
			<path d="m107.83 272.68v-9.047h3.881v1.37h-2.518v2.468h1.84v1.371h-1.84v2.467h2.518v1.371h-3.881z"/>
			<path d="m114.18 263.64 1.81 6.08v-6.08h1.364v9.047h-1.465l-1.875-5.793v5.793h-1.364v-9.047h1.53z"/>
		</g>
	
	<rect x="174.01" y="177.12" width="196.7" height="175.91" fill="#4EAF60"/>
	<rect x="179.01" y="182.12" width="186.7" height="165.91" fill="#62C479"/>
	<rect x="183" y="186.12" width="178.71" height="157.58" fill="#2D4151"/>
	
		<path d="M42.159,141.987c0,11.65-9.436,21.086-21.086,21.086C9.436,163.073,0,153.637,0,141.987" fill="#DBA52C"/>
		<path d="m84.318 141.99c0 11.65-9.436 21.086-21.086 21.086-11.637 0-21.073-9.436-21.073-21.086" fill="#D1D1D1"/>
		<path d="m126.48 141.99c0 11.65-9.436 21.086-21.073 21.086-11.65 0-21.086-9.436-21.086-21.086" fill="#DBA52C"/>
		<path d="m168.64 141.99c0 11.65-9.436 21.086-21.073 21.086-11.65 0-21.086-9.436-21.086-21.086" fill="#D1D1D1"/>
		<path d="m210.8 141.99c0 11.65-9.436 21.086-21.073 21.086-11.65 0-21.086-9.436-21.086-21.086" fill="#DBA52C"/>
		<path d="m252.97 141.99c0 11.65-9.448 21.086-21.086 21.086-11.637 0-21.086-9.436-21.086-21.086" fill="#D1D1D1"/>
		<path d="m295.12 141.99c0 11.65-9.436 21.086-21.086 21.086-11.637 0-21.073-9.436-21.073-21.086" fill="#DBA52C"/>
		<path d="m337.28 141.99c0 11.65-9.436 21.086-21.086 21.086-11.637 0-21.073-9.436-21.073-21.086" fill="#D1D1D1"/>
		<path d="m379.44 141.99c0 11.65-9.436 21.086-21.086 21.086-11.637 0-21.073-9.436-21.073-21.086" fill="#DBA52C"/>
		<path d="m421.6 141.99c0 11.65-9.436 21.086-21.073 21.086-11.65 0-21.086-9.436-21.086-21.086" fill="#D1D1D1"/>
	
	
		<polygon points="68.292 77.29 32.666 77.29 0 141.99 42.159 141.99" fill="#F9C032"/>
		<polygon points="103.92 77.29 68.292 77.29 42.159 141.99 84.318 141.99" fill="#E6E6E6"/>
		<polygon points="139.54 77.29 103.92 77.29 84.318 141.99 126.48 141.99" fill="#F9C032"/>
		<polygon points="175.17 77.29 139.54 77.29 126.48 141.99 168.64 141.99" fill="#E6E6E6"/>
		<polygon points="210.8 77.29 175.17 77.29 168.64 141.99 210.8 141.99" fill="#F9C032"/>
		<polygon points="246.42 77.29 210.8 77.29 210.8 141.99 252.95 141.99" fill="#E6E6E6"/>
		<polygon points="282.05 77.29 246.42 77.29 252.95 141.99 295.11 141.99" fill="#F9C032"/>
		<polygon points="317.67 77.29 282.05 77.29 295.11 141.99 337.27 141.99" fill="#E6E6E6"/>
		<polygon points="388.94 77.29 353.31 77.29 379.44 141.99 421.6 141.99" fill="#E6E6E6"/>
		<polygon points="353.31 77.29 317.68 77.29 337.28 141.99 379.44 141.99" fill="#F9C032"/>
	
	
		<rect x="268.86" y="299.54" width="7" height="44.17" fill="#D8722E"/>
		<polygon points="265.64 294.54 272.36 282.89 279.08 294.54" fill="#E6E6E6"/>
		<g fill="#E6E6E6">
			<path d="m255.11 288.66c0 3.797-3.078 6.875-6.875 6.875s-6.875-3.078-6.875-6.875"/>
			<path d="m303.36 288.66c0 3.797-3.078 6.875-6.875 6.875s-6.875-3.078-6.875-6.875"/>
		</g>
		<rect x="268.86" y="301.04" width="7" height="7" fill="#C6622A"/>
		<path d="m306.86 301.54h-69c-1.933 0-3.5-1.567-3.5-3.5s1.567-3.5 3.5-3.5h69c1.933 0 3.5 1.567 3.5 3.5s-1.567 3.5-3.5 3.5z" fill="#D8722E"/>
		
			
				<rect x="214.64" y="327.04" width="7" height="16.667" fill="#D8722E"/>
				<rect x="235.32" y="327.04" width="7" height="16.667" fill="#D8722E"/>
				<rect x="235.32" y="326.54" width="7" height="7" fill="#C6622A"/>
				<rect x="214.64" y="326.54" width="7" height="7" fill="#C6622A"/>
				<path d="m242.12 321.54h-22.978v-33.469c0-1.895-1.419-3.594-3.312-3.693-2.018-0.106-3.688 1.5-3.688 3.495v38.279c0 1.319 1.069 2.388 2.388 2.388h27.788c1.995 0 3.601-1.67 3.495-3.688-0.099-1.893-1.798-3.312-3.693-3.312z" fill="#D8722E"/>
			
			
				<rect x="323.07" y="327.04" width="7" height="16.667" fill="#D8722E"/>
				<rect x="302.4" y="327.04" width="7" height="16.667" fill="#D8722E"/>
				<rect x="302.4" y="326.54" width="7" height="7" fill="#C6622A"/>
				<rect x="323.07" y="326.54" width="7" height="7" fill="#C6622A"/>
				<path d="m328.88 284.37c-1.893 0.099-3.312 1.798-3.312 3.693v33.469h-22.978c-1.895 0-3.594 1.419-3.693 3.312-0.106 2.018 1.5 3.688 3.495 3.688h27.788c1.319 0 2.388-1.069 2.388-2.388v-38.279c0-1.995-1.67-3.6-3.688-3.495z" fill="#D8722E"/>
			
		
	
	<path d="m192.37 284.86c13.69 6.19 23.69 25.58 23.69 48.55 0 3.53-0.24 6.97-0.69 10.29h-32.37v-157.58h64.6c0.79 4.83 1.25 9.81 1.34 14.91 0.01 0.63 0.02 1.27 0.02 1.91 0 41.72-24.6 76.21-56.59 81.92z" fill="#F9C032"/>
	<path d="m361.71 186.12v157.58h-32.37c-0.45-3.32-0.69-6.76-0.69-10.29 0-22.97 10-42.36 23.69-48.55-31.99-5.71-56.59-40.2-56.59-81.92 0-0.64 0.01-1.28 0.02-1.91 0.09-5.1 0.55-10.08 1.34-14.91h64.6z" fill="#F9C032"/>
	<rect x="183" y="283.38" width="15.557" height="5.374" fill="#D8722E"/>
	<rect x="346.16" y="283.38" width="15.557" height="5.374" fill="#D8722E"/>
	<path d="m247.6 186.12c0.79 4.83 1.25 9.81 1.34 14.91h-65.94v-14.91h64.6z" fill="#DBA52C"/>
	<rect x="269.86" y="186.12" width="5" height="50.91" fill="#D8722E"/>
	<path d="m362.03 186.12v14.91h-66.26c0.09-5.1 0.55-10.08 1.34-14.91h64.92z" fill="#DBA52C"/>
	<path d="m295.8 250.75c0-12.944-10.493-23.438-23.438-23.438s-23.438 10.493-23.438 23.438" fill="#F9C032"/>
	<path d="m190.41 337.02h167.59v-95.871c-2e-3 0-26.914 84.127-167.59 95.871z" enable-background="new" fill="#FCFAFA" opacity=".2"/>
	<rect x="73.864" y="26.035" width="285.34" height="75" fill="#76DD91"/>
	<rect x="81.18" y="33.352" width="270.71" height="60.367" fill="#F9C032"/>
	<rect x="88.493" y="40.665" width="256.08" height="45.74" fill="#62C479"/>
	<rect x="95.653" y="47.825" width="248.92" height="38.58" fill="#76DD91"/>
	<rect x="174.01" y="358.04" width="196.7" height="32.531" fill="#4EAF60"/>
	<rect x="179.01" y="363.04" width="186.7" height="22.531" fill="#76DD91"/>
	<g fill="#2D4151">
		<path d="m194.47 61.363c0-0.087 0.043-0.217 0.043-0.217 0.304-1.13 0.565-2.129 0.565-3.258 0-1.477-0.435-2.693-1.738-2.693-2.954 0-6.69 6.386-6.69 12.294 0 4.127 1.911 5.604 3.866 5.604s4.648-1.955 5.734-2.867c0 0 0.26-0.261 0.521-0.261 0.304 0 0.478 0.087 0.652 0.304 0.391 0.478 1.303 2.52 1.477 2.954 0.13 0.304 0.217 0.521 0.217 0.825 0 0.261-0.087 0.478-0.261 0.695-1.303 1.738-4.692 4.388-7.82 4.388-2.78 0-7.385-2.302-9.079-4.865-1.129-1.738-1.781-3.953-1.781-6.386 0-7.95 4.909-17.985 11.729-17.985 1.998 0 9.601 2.563 9.601 6.386 0 1.651-0.782 3.606-1.26 4.735-0.174 0.434-0.608 0.739-1.129 0.739-0.652 0.087-3.389 0.13-4.04 0.13-0.346-1e-3 -0.607-0.218-0.607-0.522z"/>
		<path d="m212.54 77.002-0.13-1.824c0-0.217-0.087-0.348-0.174-0.348s-0.174 0.087-0.261 0.217c-1.521 2.433-3.258 3.997-4.605 3.997-3.084 0-6.516-3.78-6.516-7.863 0-7.255 3.475-14.423 9.471-14.423 2.128 0 6.473 1.694 9.601 3.736 0.304 0.174 0.521 0.521 0.521 0.912 0 0.13-0.087 0.478-0.087 0.478-1.738 6.169-2.346 12.902-2.433 16.377-0.044 0.391-0.348 0.695-0.739 0.695-1.129 0-3.519-0.652-3.866-0.825-0.564-0.304-0.738-0.695-0.782-1.129zm-0.391-7.211c0.478-2.259 1.304-6.343 1.304-6.69 0-0.304-0.131-0.565-0.479-0.695-0.608-0.217-1.173-0.348-1.521-0.348-2.823 0-4.388 5.952-4.388 8.949 0 1.26 0.304 2.128 0.695 2.128 0.912 0 2.563-1.173 3.823-2.346 0.35-0.303 0.523-0.694 0.566-0.998z"/>
		<path d="m234.69 53.804c-1.26 0-2.563 1.217-2.563 2.563 0 0.347 0.217 0.521 0.651 0.521 0.782 0 1.651 0 2.172 0.043 0.565 0.043 0.739 0.521 0.739 0.999-0.044 0.999-0.174 2.737-0.348 3.78-0.087 0.434-0.521 0.782-0.999 0.782-0.608 0-1.738-0.043-2.78-0.043-0.435 0-0.826 0.304-0.913 0.695-0.912 4.735-1.998 10.817-2.736 15.118-0.087 0.391-0.478 0.739-0.912 0.739-0.869 0-3.736-0.782-4.432-1.129-0.304-0.174-0.608-0.391-0.608-0.956 0-0.782 2.26-13.641 2.26-13.858 0-0.478-0.087-0.739-0.435-0.739h-0.608c-0.521 0-0.825-0.304-0.825-0.739s0-2.52 0.087-3.475c0-0.478 0.348-0.956 0.999-0.956h0.956c0.521 0 0.868-0.391 0.955-0.869 0.869-4.388 2.693-8.341 8.124-8.341 1.303 0 2.91 0.347 4.17 0.956 0.348 0.217 0.521 0.478 0.521 0.825 0 0.435-0.955 3.693-1.042 3.953-0.087 0.304-0.392 0.435-0.695 0.435-0.26 0-1.085-0.304-1.738-0.304z"/>
		<path d="m244.29 73.396c1.521 0 3.171-0.608 4.388-1.303 0 0 0.173-0.087 0.347-0.087 0.305 0 0.479 0.13 0.652 0.435 0.304 0.565 1.129 2.259 1.129 2.867 0 0.478-0.174 0.825-0.435 1.086-1.563 1.39-3.605 2.65-6.038 2.65-1.434 0-5.43-1.173-7.081-3.258-1.173-1.477-1.781-3.345-1.781-5.734 0-5.387 3.736-13.337 8.993-13.337 1.52 0 5.733 1.694 7.341 3.302 0.869 0.869 1.087 2.172 1.087 3.215 0 3.388-3.041 7.038-8.342 7.038-0.825 0-1.998-0.174-2.346-0.174-0.217 0-0.478 0.174-0.478 0.521 0 1.259 0.957 2.779 2.564 2.779zm-1.781-7.341c0 0.347 0.261 0.521 0.564 0.521 2.477 0 3.953-2.172 3.953-3.606 0-0.825-0.261-1.564-1.043-1.564-1.346 0-3.474 3.476-3.474 4.649z"/>
	</g>
	<g fill="#2D4151">
		<rect x="131.87" y="60.868" width="32" height="5.333"/>
		<rect x="269.2" y="60.868" width="32" height="5.333"/>
	</g>
	<g fill="#2D4151">
		<rect x="144.7" y="69.079" width="27.15" height="5.333"/>
		<rect x="261.22" y="69.079" width="27.15" height="5.333"/>
	</g>
	<path d="m144.01 212.94v91h-52.057s45.68-14.614 52.057-91z" enable-background="new" fill="#FCFAFA" opacity=".2"/>
















</svg>
