<?xml version="1.0" encoding="UTF-8"?>
<svg width="512" height="512" viewBox="0 0 58 59" xmlns="http://www.w3.org/2000/svg">
<g fill="none" fill-rule="evenodd">
<g transform="translate(0 -1)" fill-rule="nonzero">
<path id="Shape" d="m51 57 4.892-9.8e-6c0.60901 0.0018564 1.1888-0.26076 1.5891-0.71976s0.58158-1.0691 0.49689-1.6722l-5.978-41.608z" fill="#f29c1f"/>
<rect y="6" width="52" height="54" rx="3" fill="#f0c419"/>
<path id="Shape" d="m48 12v6h-44v-6c0.0032948-1.1032 0.8968-1.9967 2-2h40c1.1032 0.0032948 1.9967 0.8968 2 2z" fill="#e64c3c"/>
<path id="Shape" d="m48 18v30.17c-2.413e-4 0.53291-0.21252 1.0438-0.59 1.42l-5.82 5.82c-0.37617 0.37748-0.88709 0.58976-1.42 0.59h-34.17c-1.1032-0.0032948-1.9967-0.8968-2-2v-36z" fill="#ecf0f1"/>
<path id="Shape" d="m18 45c3.3123-0.0033074 5.9967-2.6877 6-6v-8c-1e-7 -3.3137-2.6863-6-6-6s-6 2.6863-6 6v8c0.0033074 3.3123 2.6877 5.9967 6 6zm-4-14c0-2.2091 1.7909-4 4-4s4 1.7909 4 4v8c0 2.2091-1.7909 4-4 4s-4-1.7909-4-4z" fill="#547580"/>
<path id="Shape" d="m29 43c-0.55228 0-1 0.44772-1 1s0.44772 1 1 1h8c0.55228 0 1-0.44772 1-1s-0.44772-1-1-1h-3v-17c-8.63e-5 -0.4044-0.24373-0.76893-0.61735-0.92368-0.37362-0.15474-0.80366-0.06923-1.0897 0.21668l-4 4c-0.37897 0.39238-0.37355 1.0161 0.012181 1.4018s1.0094 0.39115 1.4018 0.012181l2.293-2.293v14.586z" fill="#547580"/>
<path id="Shape" d="m37 48h-23c-0.55228 0-1 0.44772-1 1s0.44772 1 1 1h23c0.55228 0 1-0.44772 1-1s-0.44772-1-1-1z" fill="#35495e"/>
<path id="Shape" d="m47.82 49c-0.10026 0.21962-0.23913 0.41946-0.41 0.59l-5.82 5.82c-0.17054 0.17087-0.37038 0.30974-0.59 0.41v-4.82c0.0032948-1.1032 0.8968-1.9967 2-2z" fill="#d1d4d1"/>
<g fill="#95a5a5">
<path id="a" d="m23.66 6h-2.09c-0.99954-2.2902-3.5364-3.4908-5.9412-2.8119-2.4048 0.67899-3.9391 3.0291-3.5933 5.5039 0.34585 2.4748 2.4656 4.3142 4.9644 4.308 0.55228 0 1 0.44772 1 1s-0.44772 1-1 1c-3.5604 4.277e-4 -6.5539-2.6717-6.956-6.2094-0.40214-3.5376 1.9152-6.8135 5.3849-7.6122 3.4696-0.79872 6.9861 1.1342 8.1712 4.4916 0.040074 0.10539 0.060413 0.21725 0.06 0.33z"/>
<path d="m42.66 6h-2.09c-0.99954-2.2902-3.5364-3.4908-5.9412-2.8119-2.4048 0.67899-3.9391 3.0291-3.5933 5.5039 0.34585 2.4748 2.4656 4.3142 4.9644 4.308 0.55228 0 1 0.44772 1 1s-0.44772 1-1 1c-3.5604 4.277e-4 -6.5539-2.6717-6.956-6.2094-0.40214-3.5376 1.9152-6.8135 5.3849-7.6122 3.4696-0.79872 6.9861 1.1342 8.1712 4.4916 0.040074 0.10539 0.060413 0.21725 0.06 0.33z"/>
</g>
</g>
</g>
</svg>
