<?xml version="1.0" encoding="UTF-8"?>
<svg enable-background="new 0 0 512 512" viewBox="0 0 512 512" xmlns="http://www.w3.org/2000/svg">
<path d="m61 15c0-8.284 6.716-15 15-15h360c8.284 0 15 6.716 15 15v481.971c0 12.944-15.295 19.811-24.968 11.209l-35.015-31.136-35.014 31.136c-5.684 5.055-14.251 5.055-19.935 0l-35.014-31.135-35.002 31.133c-5.684 5.056-14.253 5.056-19.937.001l-35.012-31.138-35.047 31.143c-5.681 5.048-14.24 5.05-19.923.003l-35.087-31.156-35.086 31.156c-9.675 8.591-24.96 1.723-24.96-11.216z" fill="#fff5f5"/>
<path d="m266.05 508.18 35.002-31.133 35.014 31.135c5.684 5.054 14.251 5.054 19.935 0l35.014-31.136 35.015 31.136c9.673 8.601 24.968 1.735 24.968-11.209v-481.97c0-8.284-6.716-15-15-15h-180v511.97c3.591 0.019 7.188-1.241 10.052-3.789z" fill="#e1ebf0"/>
<path d="m180.599 134.944c-1.741-.615-3.514-1.254-5.289-1.913v-32.312c3.055 1.127 4.645 2.657 4.872 2.888 3.637 4.103 9.908 4.515 14.051.905 4.165-3.627 4.6-9.944.972-14.108-3.323-3.815-10.186-8.594-19.895-10.275v-5.129c0-5.522-4.477-10-10-10s-10 4.478-10 10v6.224c-.616.163-1.238.336-1.865.525-11.853 3.571-20.705 13.689-23.102 26.407-2.199 11.671 1.59 22.964 9.888 29.472 3.917 3.073 8.691 5.889 15.079 8.817v42.234c-4.519-.635-7.904-2.17-13.306-5.703-4.621-3.022-10.819-1.729-13.843 2.894s-1.728 10.819 2.895 13.843c9.488 6.207 16.18 8.388 24.254 9.086v6.201c0 5.522 4.477 10 10 10s10-4.478 10-10v-7.162c16.616-4.215 27.266-18.408 29.619-32.403 3.026-18.004-6.751-34.277-24.33-40.491zm-28.025-13.052c-2.365-1.854-3.376-5.792-2.578-10.031.579-3.073 2.261-6.615 5.313-8.956v20.913c-.984-.631-1.902-1.273-2.735-1.926zm32.631 50.228c-.911 5.42-4.27 11.118-9.895 14.339v-32.121c10.821 4.558 10.552 13.873 9.895 17.782z" fill="#756e78"/>
<g fill="#544f57">
<path d="m256 85c0 8.284 6.716 15 15 15h104.98c8.284 0 15-6.716 15-15s-6.716-15-15-15h-104.98c-8.284 0-15 6.716-15 15z"/>
<path d="m256 145c0 8.284 6.716 15 15 15h104.98c8.284 0 15-6.716 15-15s-6.716-15-15-15h-104.98c-8.284 0-15 6.716-15 15z"/>
<path d="m256 205c0 8.284 6.716 15 15 15h104.98c8.284 0 15-6.716 15-15s-6.716-15-15-15h-104.98c-8.284 0-15 6.716-15 15z"/>
</g>
<path d="m376 280h-160c-8.284 0-15-6.716-15-15s6.716-15 15-15h160c8.284 0 15 6.716 15 15s-6.716 15-15 15z" fill="#756e78"/>
<path d="m376 250h-120v30h120c8.284 0 15-6.716 15-15s-6.716-15-15-15z" fill="#544f57"/>
<path d="m376 340h-160c-8.284 0-15-6.716-15-15s6.716-15 15-15h160c8.284 0 15 6.716 15 15s-6.716 15-15 15z" fill="#756e78"/>
<path d="m376 310h-120v30h120c8.284 0 15-6.716 15-15s-6.716-15-15-15z" fill="#544f57"/>
<path d="m376 400h-160c-8.284 0-15-6.716-15-15s6.716-15 15-15h160c8.284 0 15 6.716 15 15s-6.716 15-15 15z" fill="#756e78"/>
<path d="m376 370h-120v30h120c8.284 0 15-6.716 15-15s-6.716-15-15-15z" fill="#544f57"/>
<path d="m156 280h-20c-8.284 0-15-6.716-15-15s6.716-15 15-15h20c8.284 0 15 6.716 15 15s-6.716 15-15 15z" fill="#756e78"/>
<path d="m156 340h-20c-8.284 0-15-6.716-15-15s6.716-15 15-15h20c8.284 0 15 6.716 15 15s-6.716 15-15 15z" fill="#756e78"/>
<path d="m156 400h-20c-8.284 0-15-6.716-15-15s6.716-15 15-15h20c8.284 0 15 6.716 15 15s-6.716 15-15 15z" fill="#756e78"/>
</svg>
